<?xml version="1.0" encoding="UTF-8" standalone="no"?>
<!-- Created with Inkscape (http://www.inkscape.org/) -->

<svg
   xmlns:dc="http://purl.org/dc/elements/1.1/"
   xmlns:cc="http://creativecommons.org/ns#"
   xmlns:rdf="http://www.w3.org/1999/02/22-rdf-syntax-ns#"
   xmlns:svg="http://www.w3.org/2000/svg"
   xmlns="http://www.w3.org/2000/svg"
   xmlns:sodipodi="http://sodipodi.sourceforge.net/DTD/sodipodi-0.dtd"
   xmlns:inkscape="http://www.inkscape.org/namespaces/inkscape"
   width="800"
   height="480"
   id="svg2"
   version="1.1"
   inkscape:version="0.48.2 r9819"
   sodipodi:docname="drawing-1.eps">
  <defs
     id="defs4" />
  <sodipodi:namedview
     id="base"
     pagecolor="#ffffff"
     bordercolor="#666666"
     borderopacity="1.0"
     inkscape:pageopacity="0.0"
     inkscape:pageshadow="2"
     inkscape:zoom="0.875"
     inkscape:cx="400"
     inkscape:cy="260.98251"
     inkscape:document-units="px"
     inkscape:current-layer="layer1"
     showgrid="true"
     inkscape:object-nodes="true"
     inkscape:window-width="1175"
     inkscape:window-height="640"
     inkscape:window-x="30"
     inkscape:window-y="0"
     inkscape:window-maximized="0">
    <inkscape:grid
       type="xygrid"
       id="grid3747"
       empspacing="5"
       visible="true"
       enabled="true"
       snapvisiblegridlinesonly="true" />
  </sodipodi:namedview>
  <metadata
     id="metadata7">
    <rdf:RDF>
      <cc:Work
         rdf:about="">
        <dc:format>image/svg+xml</dc:format>
        <dc:type
           rdf:resource="http://purl.org/dc/dcmitype/StillImage" />
        <dc:title></dc:title>
      </cc:Work>
    </rdf:RDF>
  </metadata>
  <g
     inkscape:label="Layer 1"
     inkscape:groupmode="layer"
     id="layer1"
     transform="translate(0,-572.3622)">
    <path
       id="path3361"
       style="fill:none;stroke:#000000;stroke-width:1.07332218;stroke-linecap:butt;stroke-linejoin:miter;stroke-miterlimit:3.79999995;stroke-opacity:1;stroke-dasharray:none"
       d="m 220.55138,914.10927 3.3273,0 m -3.3273,-20.17846 6.76193,0"
       inkscape:connector-curvature="0" />
    <g
       transform="matrix(0,1.0733222,1.0733222,0,93.255378,560.66428)"
       id="g3363">
      <text
         id="text3365"
         transform="matrix(0,1,1,0,315.17,86.0785)">
        <tspan
           id="tspan3367"
           sodipodi:role="line"
           y="0"
           x="0 4.6620002 12.446 16.337999"
           style="font-size:14px;font-variant:normal;font-weight:normal;writing-mode:lr-tb;fill:#000000;fill-opacity:1;fill-rule:nonzero;stroke:none;font-family:Helvetica CY;-inkscape-font-specification:Helvetica">-0.5</tspan>
      </text>
    </g>
    <path
       id="path3369"
       style="fill:none;stroke:#000000;stroke-width:1.07332218;stroke-linecap:butt;stroke-linejoin:miter;stroke-miterlimit:3.79999995;stroke-opacity:1;stroke-dasharray:none"
       d="m 220.55138,873.85968 3.3273,0 m -3.3273,-20.17845 6.76193,0"
       inkscape:connector-curvature="0" />
    <g
       transform="matrix(0,1.0733222,1.0733222,0,93.255378,560.66428)"
       id="g3371">
      <text
         id="text3373"
         transform="matrix(0,1,1,0,277.67,102.4162)">
        <tspan
           id="tspan3375"
           y="0"
           x="0"
           style="font-size:14px;font-variant:normal;font-weight:normal;writing-mode:lr-tb;fill:#000000;fill-opacity:1;fill-rule:nonzero;stroke:none;font-family:Helvetica CY;-inkscape-font-specification:Helvetica">0</tspan>
      </text>
    </g>
    <path
       id="path3377"
       style="fill:none;stroke:#000000;stroke-width:1.07332218;stroke-linecap:butt;stroke-linejoin:miter;stroke-miterlimit:3.79999995;stroke-opacity:1;stroke-dasharray:none"
       d="m 220.55138,833.6101 3.3273,0 m -3.3273,-20.17845 6.76193,0"
       inkscape:connector-curvature="0" />
    <g
       transform="matrix(0,1.0733222,1.0733222,0,93.255378,560.66428)"
       id="g3379">
      <text
         id="text3381"
         transform="matrix(0,1,1,0,240.17,90.7404)">
        <tspan
           id="tspan3383"
           sodipodi:role="line"
           y="0"
           x="0 7.7839999 11.676"
           style="font-size:14px;font-variant:normal;font-weight:normal;writing-mode:lr-tb;fill:#000000;fill-opacity:1;fill-rule:nonzero;stroke:none;font-family:Helvetica CY;-inkscape-font-specification:Helvetica">0.5</tspan>
      </text>
    </g>
    <path
       id="path3385"
       style="fill:none;stroke:#000000;stroke-width:1.07332218;stroke-linecap:butt;stroke-linejoin:miter;stroke-miterlimit:3.79999995;stroke-opacity:1;stroke-dasharray:none"
       d="m 220.55138,793.36052 3.3273,0 m -3.3273,-20.17845 6.76193,0"
       inkscape:connector-curvature="0" />
    <g
       transform="matrix(0,1.0733222,1.0733222,0,93.255378,560.66428)"
       id="g3387">
      <text
         id="text3389"
         transform="matrix(0,1,1,0,202.67,102.4162)">
        <tspan
           id="tspan3391"
           y="0"
           x="0"
           style="font-size:14px;font-variant:normal;font-weight:normal;writing-mode:lr-tb;fill:#000000;fill-opacity:1;fill-rule:nonzero;stroke:none;font-family:Helvetica CY;-inkscape-font-specification:Helvetica">1</tspan>
      </text>
    </g>
    <path
       id="path3393"
       style="fill:none;stroke:#000000;stroke-width:1.07332218;stroke-linecap:butt;stroke-linejoin:miter;stroke-miterlimit:3.79999995;stroke-opacity:1;stroke-dasharray:none"
       d="m 220.55138,753.11094 3.3273,0 m -3.3273,-20.07112 6.76193,0"
       inkscape:connector-curvature="0" />
    <g
       transform="matrix(0,1.0733222,1.0733222,0,93.255378,560.66428)"
       id="g3395">
      <text
         id="text3397"
         transform="matrix(0,1,1,0,165.27,90.7404)">
        <tspan
           id="tspan3399"
           sodipodi:role="line"
           y="0"
           x="0 7.7839999 11.676"
           style="font-size:14px;font-variant:normal;font-weight:normal;writing-mode:lr-tb;fill:#000000;fill-opacity:1;fill-rule:nonzero;stroke:none;font-family:Helvetica CY;-inkscape-font-specification:Helvetica">1.5</tspan>
      </text>
    </g>
    <path
       id="path3401"
       style="fill:none;stroke:#000000;stroke-width:1.07332218;stroke-linecap:butt;stroke-linejoin:miter;stroke-miterlimit:3.79999995;stroke-opacity:1;stroke-dasharray:none"
       d="m 220.55138,712.86136 3.3273,0 m -3.3273,-20.07112 6.76193,0"
       inkscape:connector-curvature="0" />
    <g
       transform="matrix(0,1.0733222,1.0733222,0,93.255378,560.66428)"
       id="g3403">
      <text
         id="text3405"
         transform="matrix(0,1,1,0,127.77,102.4162)">
        <tspan
           id="tspan3407"
           y="0"
           x="0"
           style="font-size:14px;font-variant:normal;font-weight:normal;writing-mode:lr-tb;fill:#000000;fill-opacity:1;fill-rule:nonzero;stroke:none;font-family:Helvetica CY;-inkscape-font-specification:Helvetica">2</tspan>
      </text>
    </g>
    <path
       id="path3409"
       style="fill:none;stroke:#000000;stroke-width:1.07332218;stroke-linecap:butt;stroke-linejoin:miter;stroke-miterlimit:3.79999995;stroke-opacity:1;stroke-dasharray:none"
       d="m 220.55138,672.61178 3.3273,0 m -3.3273,-20.07112 6.76193,0"
       inkscape:connector-curvature="0" />
    <g
       transform="matrix(0,1.0733222,1.0733222,0,93.255378,560.66428)"
       id="g3411">
      <text
         id="text3413"
         transform="matrix(0,1,1,0,90.2699,90.7404)">
        <tspan
           id="tspan3415"
           sodipodi:role="line"
           y="0"
           x="0 7.7839999 11.676"
           style="font-size:14px;font-variant:normal;font-weight:normal;writing-mode:lr-tb;fill:#000000;fill-opacity:1;fill-rule:nonzero;stroke:none;font-family:Helvetica CY;-inkscape-font-specification:Helvetica">2.5</tspan>
      </text>
    </g>
    <path
       id="path3417"
       style="fill:none;stroke:#000000;stroke-width:1.07332218;stroke-linecap:butt;stroke-linejoin:miter;stroke-miterlimit:3.79999995;stroke-opacity:1;stroke-dasharray:none"
       d="m 220.55138,632.3622 3.3273,0 m 30.37502,281.63973 0,-3.3273 m 37.56627,3.3273 0,-6.76193"
       inkscape:connector-curvature="0" />
    <g
       transform="matrix(0,1.0733222,1.0733222,0,93.255378,560.66428)"
       id="g3419">
      <text
         id="text3421"
         transform="matrix(0,1,1,0,347.87,177.216)">
        <tspan
           id="tspan3423"
           sodipodi:role="line"
           y="0"
           x="0 7.7839999 11.676"
           style="font-size:14px;font-variant:normal;font-weight:normal;writing-mode:lr-tb;fill:#000000;fill-opacity:1;fill-rule:nonzero;stroke:none;font-family:Helvetica CY;-inkscape-font-specification:Helvetica">0.8</tspan>
      </text>
    </g>
    <path
       id="path3425"
       style="fill:none;stroke:#000000;stroke-width:1.07332218;stroke-linecap:butt;stroke-linejoin:miter;stroke-miterlimit:3.79999995;stroke-opacity:1;stroke-dasharray:none"
       d="m 329.27892,914.00193 0,-3.3273 m 37.45894,3.3273 0,-6.76193"
       inkscape:connector-curvature="0" />
    <g
       transform="matrix(0,1.0733222,1.0733222,0,93.255378,560.66428)"
       id="g3427">
      <text
         id="text3429"
         transform="matrix(0,1,1,0,347.87,252.854)">
        <tspan
           id="tspan3431"
           y="0"
           x="0"
           style="font-size:14px;font-variant:normal;font-weight:normal;writing-mode:lr-tb;fill:#000000;fill-opacity:1;fill-rule:nonzero;stroke:none;font-family:Helvetica CY;-inkscape-font-specification:Helvetica">1</tspan>
      </text>
    </g>
    <path
       id="path3433"
       style="fill:none;stroke:#000000;stroke-width:1.07332218;stroke-linecap:butt;stroke-linejoin:miter;stroke-miterlimit:3.79999995;stroke-opacity:1;stroke-dasharray:none"
       d="m 404.30413,914.00193 0,-3.3273 m 37.45895,3.3273 0,-6.76193"
       inkscape:connector-curvature="0" />
    <g
       transform="matrix(0,1.0733222,1.0733222,0,93.255378,560.66428)"
       id="g3435">
      <text
         id="text3437"
         transform="matrix(0,1,1,0,347.87,316.916)">
        <tspan
           id="tspan3439"
           sodipodi:role="line"
           y="0"
           x="0 7.7839999 11.676"
           style="font-size:14px;font-variant:normal;font-weight:normal;writing-mode:lr-tb;fill:#000000;fill-opacity:1;fill-rule:nonzero;stroke:none;font-family:Helvetica CY;-inkscape-font-specification:Helvetica">1.2</tspan>
      </text>
    </g>
    <path
       id="path3441"
       style="fill:none;stroke:#000000;stroke-width:1.07332218;stroke-linecap:butt;stroke-linejoin:miter;stroke-miterlimit:3.79999995;stroke-opacity:1;stroke-dasharray:none"
       d="m 479.32935,914.00193 0,-3.3273 m 37.45895,3.3273 0,-6.76193"
       inkscape:connector-curvature="0" />
    <g
       transform="matrix(0,1.0733222,1.0733222,0,93.255378,560.66428)"
       id="g3443">
      <text
         id="text3445"
         transform="matrix(0,1,1,0,347.87,386.816)">
        <tspan
           id="tspan3447"
           sodipodi:role="line"
           y="0"
           x="0 7.7839999 11.676"
           style="font-size:14px;font-variant:normal;font-weight:normal;writing-mode:lr-tb;fill:#000000;fill-opacity:1;fill-rule:nonzero;stroke:none;font-family:Helvetica CY;-inkscape-font-specification:Helvetica">1.4</tspan>
      </text>
    </g>
    <path
       id="path3449"
       style="fill:none;stroke:#000000;stroke-width:1.07332218;stroke-linecap:butt;stroke-linejoin:miter;stroke-miterlimit:3.79999995;stroke-opacity:1;stroke-dasharray:none"
       d="m 554.24725,914.00193 0,-3.3273 m 37.56627,3.3273 0,-6.76193"
       inkscape:connector-curvature="0" />
    <g
       transform="matrix(0,1.0733222,1.0733222,0,93.255378,560.66428)"
       id="g3451">
      <text
         id="text3453"
         transform="matrix(0,1,1,0,347.87,456.716)">
        <tspan
           id="tspan3455"
           sodipodi:role="line"
           y="0"
           x="0 7.7839999 11.676"
           style="font-size:14px;font-variant:normal;font-weight:normal;writing-mode:lr-tb;fill:#000000;fill-opacity:1;fill-rule:nonzero;stroke:none;font-family:Helvetica CY;-inkscape-font-specification:Helvetica">1.6</tspan>
      </text>
    </g>
    <path
       id="path3457"
       style="fill:none;stroke:#000000;stroke-width:1.07332218;stroke-linecap:butt;stroke-linejoin:miter;stroke-miterlimit:3.79999995;stroke-opacity:1;stroke-dasharray:none"
       d="m 629.27247,914.00193 0,-3.3273 m 37.45894,3.3273 0,-6.76193"
       inkscape:connector-curvature="0" />
    <g
       transform="matrix(0,1.0733222,1.0733222,0,93.255378,560.66428)"
       id="g3459">
      <text
         id="text3461"
         transform="matrix(0,1,1,0,347.87,526.516)">
        <tspan
           id="tspan3463"
           sodipodi:role="line"
           y="0"
           x="0 7.7839999 11.676"
           style="font-size:14px;font-variant:normal;font-weight:normal;writing-mode:lr-tb;fill:#000000;fill-opacity:1;fill-rule:nonzero;stroke:none;font-family:Helvetica CY;-inkscape-font-specification:Helvetica">1.8</tspan>
      </text>
    </g>
    <path
       id="path3465"
       style="fill:none;stroke:#000000;stroke-width:1.07332218;stroke-linecap:butt;stroke-linejoin:miter;stroke-miterlimit:3.79999995;stroke-opacity:1;stroke-dasharray:none"
       d="m 704.29768,914.00193 0,-3.3273"
       inkscape:connector-curvature="0" />
    <path
       id="path3467"
       style="fill:none;stroke:#000000;stroke-width:1.07332218;stroke-linecap:butt;stroke-linejoin:miter;stroke-miterlimit:3.79999995;stroke-opacity:1;stroke-dasharray:none"
       d="m 220.55138,632.46953 0,281.5324 517.44862,0 0,-281.5324 -517.44862,0 z"
       inkscape:connector-curvature="0" />
    <g
       transform="matrix(0,1.0733222,1.0733222,0,93.255378,560.66428)"
       id="g3469">
      <text
         id="text3471"
         transform="matrix(-1,0,0,1,236.849,64.4699)">
        <tspan
           id="tspan3473"
           sodipodi:role="line"
           y="0"
           x="0 9.3380003 17.122 24.906 29.568001 37.352001 44.352001 48.243999"
           style="font-size:14px;font-variant:normal;font-weight:normal;writing-mode:lr-tb;fill:#000000;fill-opacity:1;fill-rule:nonzero;stroke:none;font-family:Helvetica CY;-inkscape-font-specification:Helvetica">Energy[K</tspan>
      </text>
      <text
         id="text3475"
         transform="matrix(-1,0,0,1,179.267,68.6699)">
        <tspan
           id="tspan3477"
           y="0"
           x="0"
           style="font-size:11.19999981px;font-variant:normal;font-weight:normal;writing-mode:lr-tb;fill:#000000;fill-opacity:1;fill-rule:nonzero;stroke:none;font-family:Helvetica CY;-inkscape-font-specification:Helvetica">B</tspan>
      </text>
      <text
         id="text3479"
         transform="matrix(-1,0,0,1,171.79669,64.4699)">
        <tspan
           id="tspan3481"
           sodipodi:role="line"
           y="0"
           x="0 8.5539999"
           style="font-size:14px;font-variant:normal;font-weight:normal;writing-mode:lr-tb;fill:#000000;fill-opacity:1;fill-rule:nonzero;stroke:none;font-family:Helvetica CY;-inkscape-font-specification:Helvetica">T]</tspan>
      </text>
      <text
         id="text3483"
         transform="matrix(0,1,1,0,368.87,309.026)">
        <tspan
           id="tspan3485"
           sodipodi:role="line"
           y="0"
           x="0 10.108 13.216 20.216 24.108 31.892 39.675999 46.675999 54.459999 58.352001 66.136002 70.028 77.811996 85.596001 97.258003"
           style="font-size:14px;font-variant:normal;font-weight:normal;writing-mode:lr-tb;fill:#000000;fill-opacity:1;fill-rule:nonzero;stroke:none;font-family:Helvetica CY;-inkscape-font-specification:Helvetica">Distance[0.1nm]</tspan>
      </text>
    </g>
    <g
       id="g4836"
       transform="matrix(0.85865772,0,0,0.85865772,121.71634,47.734628)">
      <text
         style="font-size:15px"
         y="980.86218"
         x="321.84137"
         id="text3489">
        <tspan
           id="tspan3491"
           y="980.86218"
           x="321.84137"
           style="font-size:15px;font-variant:normal;writing-mode:lr-tb;fill:#000000;fill-opacity:1;fill-rule:nonzero;stroke:none;font-family:UTF;-inkscape-font-specification:UTF-8">2</tspan>
      </text>
      <text
         style="font-size:15px"
         y="973.36218"
         x="330.84137"
         id="text3493">
        <tspan
           id="tspan3495"
           sodipodi:role="line"
           y="973.36218"
           x="330.84137 338.04138 345.24136"
           style="font-size:12px;font-variant:normal;writing-mode:lr-tb;fill:#000000;fill-opacity:1;fill-rule:nonzero;stroke:none;font-family:UTF;-inkscape-font-specification:UTF-8">1/6</tspan>
      </text>
      <text
         style="font-size:15px"
         y="980.86218"
         x="352.4415"
         id="text3497">
        <tspan
           id="tspan3499"
           y="980.86218"
           x="352.4415"
           style="font-size:15px;font-variant:normal;font-weight:normal;writing-mode:lr-tb;fill:#000000;fill-opacity:1;fill-rule:nonzero;stroke:none;font-family:Symbol;-inkscape-font-specification:Symbol">σ</tspan>
      </text>
    </g>
    <text
       id="text3501"
       x="417.42096"
       y="906.91797"
       style="font-size:12.87986565px">
      <tspan
         style="font-size:12.87986565px;font-variant:normal;writing-mode:lr-tb;fill:#000000;fill-opacity:1;fill-rule:nonzero;stroke:none;font-family:UTF;-inkscape-font-specification:UTF-8"
         x="417.42096"
         y="906.91797"
         id="tspan3503">r</tspan>
    </text>
    <text
       id="text3505"
       x="425.14886"
       y="910.78192"
       style="font-size:12.87986565px">
      <tspan
         style="font-size:10.30389309px;font-variant:normal;writing-mode:lr-tb;fill:#000000;fill-opacity:1;fill-rule:nonzero;stroke:none;font-family:UTF;-inkscape-font-specification:UTF-8"
         x="425.14886"
         y="910.78192"
         id="tspan3507">c</tspan>
    </text>
    <text
       id="text3525"
       x="246.20454"
       y="886.09552"
       style="font-size:12.87986565px">
      <tspan
         style="font-size:12.87986565px;font-variant:normal;writing-mode:lr-tb;fill:#000000;fill-opacity:1;fill-rule:nonzero;stroke:none;font-family:UTF;-inkscape-font-specification:UTF-8"
         x="246.20454"
         y="886.09552"
         id="tspan3527">p</tspan>
    </text>
    <text
       id="text3529"
       x="252.6114"
       y="889.95947"
       style="font-size:12.87986565px">
      <tspan
         style="font-size:8.58657742px;font-variant:normal;writing-mode:lr-tb;fill:#000000;fill-opacity:1;fill-rule:nonzero;stroke:none;font-family:UTF;-inkscape-font-specification:UTF-8"
         x="252.6114"
         y="889.95947"
         sodipodi:role="line"
         id="tspan3531">min</tspan>
    </text>
    <text
       id="text3533"
       x="269.78455"
       y="889.95947"
       style="font-size:12.87986565px">
      <tspan
         style="font-size:12.87986565px;font-variant:normal;writing-mode:lr-tb;fill:#000000;fill-opacity:1;fill-rule:nonzero;stroke:none;font-family:UTF;-inkscape-font-specification:UTF-8"
         sodipodi:role="line"
         id="tspan3535"
         x="269.78455"
         y="889.95947">=-</tspan>
    </text>
    <text
       id="text3537"
       x="286.9577"
       y="888.24219"
       style="font-size:12.87986565px">
      <tspan
         style="font-size:12.87986565px;font-variant:normal;font-weight:normal;writing-mode:lr-tb;fill:#000000;fill-opacity:1;fill-rule:nonzero;stroke:none;font-family:Symbol;-inkscape-font-specification:Symbol"
         x="286.9577"
         y="888.24219"
         id="tspan3539">ε</tspan>
    </text>
    <path
       id="path3541"
       style="fill:none;stroke:#000000;stroke-width:0.53666109;stroke-linecap:butt;stroke-linejoin:miter;stroke-miterlimit:3.79999995;stroke-opacity:1;stroke-dasharray:3.21996646, 3.21996646, 1.07332215, 3.21996646;stroke-dashoffset:0"
       d="m 412.67605,914.00193 0,-20.07112"
       inkscape:connector-curvature="0" />
    <path
       id="path3543"
       style="fill:none;stroke:#000000;stroke-width:0.53666109;stroke-linecap:butt;stroke-linejoin:miter;stroke-miterlimit:3.79999995;stroke-opacity:1;stroke-dasharray:3.21996646, 3.21996646, 1.07332215, 3.21996646;stroke-dashoffset:0"
       d="m 412.67605,914.00193 0,-20.07112"
       inkscape:connector-curvature="0" />
    <path
       id="path3545"
       style="fill:none;stroke:#000000;stroke-width:0.53666109;stroke-linecap:butt;stroke-linejoin:miter;stroke-miterlimit:3.79999995;stroke-opacity:1;stroke-dasharray:1.07332215, 1.60998323;stroke-dashoffset:0"
       d="m 220.55138,853.68123 517.44862,0"
       inkscape:connector-curvature="0" />
    <path
       id="path3547"
       style="fill:none;stroke:#bfbfbf;stroke-width:0.53666109;stroke-linecap:butt;stroke-linejoin:miter;stroke-miterlimit:3.79999995;stroke-opacity:1;stroke-dasharray:none"
       d="m 220.55138,893.93081 192.12467,0"
       inkscape:connector-curvature="0" />
    <path
       id="path3549"
       style="fill:none;stroke:#bfbfbf;stroke-width:0.53666109;stroke-linecap:butt;stroke-linejoin:miter;stroke-miterlimit:3.79999995;stroke-opacity:1;stroke-dasharray:none"
       d="m 220.55138,893.93081 192.12467,0"
       inkscape:connector-curvature="0" />
    <g
       transform="matrix(0,1.0733222,1.0733222,0,93.255378,560.66428)"
       id="g3551">
      <text
         id="text3553"
         transform="matrix(0,1,1,0,86.9699,408.474)">
        <tspan
           id="tspan3555"
           sodipodi:role="line"
           y="0"
           x="0 7.7839999 15.568 23.351999 31.136 38.919998 43.582001 51.366001 56.028 63.028 70.811996 78.596001 86.379997 93.379997 97.272003 105.056 109.718"
           style="font-size:14px;font-variant:normal;font-weight:normal;writing-mode:lr-tb;fill:#000000;fill-opacity:1;fill-rule:nonzero;stroke:none;font-family:Helvetica CY;-inkscape-font-specification:Helvetica">Lennard-Jones p(r</tspan>
      </text>
      <text
         id="text3557"
         transform="matrix(0,1,1,0,91.1699,522.854)">
        <tspan
           id="tspan3559"
           sodipodi:role="line"
           y="0"
           x="0 2.4863999 5.5999999"
           style="font-size:11.19999981px;font-variant:normal;font-weight:normal;writing-mode:lr-tb;fill:#000000;fill-opacity:1;fill-rule:nonzero;stroke:none;font-family:Helvetica CY;-inkscape-font-specification:Helvetica">i,j</tspan>
      </text>
      <text
         id="text3561"
         transform="matrix(0,1,1,0,86.9699,530.94033)">
        <tspan
           id="tspan3563"
           y="0"
           x="0"
           style="font-size:14px;font-variant:normal;font-weight:normal;writing-mode:lr-tb;fill:#000000;fill-opacity:1;fill-rule:nonzero;stroke:none;font-family:Helvetica CY;-inkscape-font-specification:Helvetica">)</tspan>
      </text>
    </g>
    <path
       id="path3565"
       style="fill:none;stroke:#bfbfbf;stroke-width:2.14664435;stroke-linecap:butt;stroke-linejoin:miter;stroke-miterlimit:3.79999995;stroke-opacity:1;stroke-dasharray:4.29328862, 2.14664431;stroke-dashoffset:0"
       d="m 677.14263,650.50134 42.82556,0 m -387.25464,-18.03181 2.79063,35.3123 5.25928,52.16346 5.25928,41.21557 5.15195,32.41433 5.25928,25.3304 5.25927,19.85646 5.25928,15.24117 5.15195,11.69922 5.25928,8.90857 5.25928,6.6546 5.15194,4.82995 5.25928,3.43463 5.25928,2.25397 5.15195,1.39532 5.25927,0.644 5.25928,0.10733 5.15195,-0.322 5.25928,-0.53666 5.25928,-0.85866 5.25928,-1.07332 5.15194,-1.18065 5.25928,-1.28799 5.25928,-1.28799 5.15194,-1.28798 5.25928,-1.39532 5.25928,-1.28799 5.15195,-1.28798 5.25928,-1.28799 5.25928,-1.28799 5.25927,-1.18065 5.15195,-1.18066 5.25928,-1.18065 5.25928,-1.07332 5.15194,-1.07333 5.25928,-0.96599 5.25928,-0.96599 5.15195,-0.85865 5.25928,-0.85866 5.25927,-0.85866 5.25928,-0.75132 5.15195,-0.75133 5.25928,-0.64399 5.25928,-0.644 5.15195,-0.64399 5.25928,-0.64399 5.25928,-0.53666 5.15194,-0.53666 5.25928,-0.53667 5.25928,-0.42932 5.15195,-0.42933 5.25928,-0.53666 5.25928,-0.322 5.25927,-0.42933 5.15195,-0.322 5.25928,-0.42933 5.25928,-0.32199 5.15194,-0.322 5.25928,-0.21466 5.25928,-0.322 5.15195,-0.21466 5.25928,-0.322 5.25927,-0.21467 5.25928,-0.21466 5.15195,-0.21466 5.25928,-0.21467 5.25928,-0.21466 5.15194,-0.21467 5.25928,-0.10733 5.25928,-0.21466 5.15195,-0.10734 5.25927,-0.21466 5.25928,-0.10733 5.25928,-0.10734 5.15195,-0.21466 5.25928,-0.10733 5.25928,-0.10733 5.15194,-0.10734 L 738,856.2572"
       inkscape:connector-curvature="0" />
    <path
       id="path3615"
       style="fill:none;stroke:#000000;stroke-width:1.07332218;stroke-linecap:butt;stroke-linejoin:miter;stroke-miterlimit:3.79999995;stroke-opacity:1;stroke-dasharray:none"
       d="m 220.55138,632.46953 0,281.5324 517.44862,0 0,-281.5324 -517.44862,0 z"
       inkscape:connector-curvature="0" />
    <path
       sodipodi:type="arc"
       style="fill:none;stroke:#000000;stroke-width:3.0999999;stroke-linejoin:round;stroke-miterlimit:4;stroke-opacity:1;stroke-dasharray:none"
       id="path3749"
       sodipodi:cx="340"
       sodipodi:cy="280"
       sodipodi:rx="100"
       sodipodi:ry="100"
       d="m 440,280 a 100,100 0 1 1 -200,0 100,100 0 1 1 200,0 z"
       transform="matrix(1.502651,0,0,1.502651,-292.63624,434.01227)" />
    <text
       xml:space="preserve"
       style="font-size:144px;font-style:normal;font-variant:normal;font-weight:bold;font-stretch:normal;line-height:125%;letter-spacing:0px;word-spacing:0px;writing-mode:tb-rl;fill:#000000;fill-opacity:1;stroke:none;font-family:Nimbus Roman No9 L;-inkscape-font-specification:Sans Bold"
       x="176.57143"
       y="414.57144"
       id="text4863"
       sodipodi:linespacing="125%"
       transform="translate(0,572.3622)"><tspan
         sodipodi:role="line"
         id="tspan4865"></tspan></text>
  </g>
</svg>
